<svg id="ed4UX8NKwFG1" xmlns="http://www.w3.org/2000/svg" xmlns:xlink="http://www.w3.org/1999/xlink" viewBox="0 0 300 300" shape-rendering="geometricPrecision" text-rendering="geometricPrecision"><line x1="-92.347956" y1="0" x2="92.347956" y2="0" transform="translate(118.594217 242.27318)" fill="none" stroke="#3f5787" stroke-width="3"/><line x1="0" y1="75.523429" x2="0" y2="-75.523429" transform="translate(63.634098 166.749751)" fill="none" stroke="#3f5787" stroke-width="3"/><line x1="-36.266201" y1="0.373878" x2="36.266201" y2="-0.373878" transform="translate(99.900299 90.104686)" fill="none" stroke="#3f5787" stroke-width="3"/><line x1="0" y1="-17.946162" x2="0" y2="17.946162" transform="translate(136.1665 107.67697)" fill="none" stroke="#3f5787" stroke-width="3"/><ellipse rx="21.101549" ry="16.064726" transform="matrix(-.189212 0 0 1.22031 727.099169 186.536738)" fill="#030b1c" stroke="#000"/><ellipse rx="4.807356" ry="5.644264" transform="matrix(-.092298 0 0 1 338.686554 161.288528)" fill="#d2dbed" stroke-width="0"/><ellipse rx="4.807356" ry="5.644264" transform="matrix(-.68627 0 0 1 684.538407 155.644264)" fill="#d2dbed" stroke-width="0"/><ellipse rx="6.91675" ry="2.822132" transform="translate(649.981967 177.584739)" fill="#d2dbed" stroke-width="0"/><ellipse rx="30" ry="30" transform="translate(771.187837 115.227524)" fill="#d2dbed" stroke-width="0"/><ellipse rx="18.133101" ry="17.076993" transform="translate(136.727318 142.700125)" stroke-width="0"/><line x1="0" y1="-30.821702" x2="0" y2="30.821702" transform="translate(136.727318 190.59882)" fill="none" stroke="#3f5787" stroke-width="3"/></svg>
