<svg id="egVkAFK6iXd1" xmlns="http://www.w3.org/2000/svg" xmlns:xlink="http://www.w3.org/1999/xlink" viewBox="0 0 300 300" shape-rendering="geometricPrecision" text-rendering="geometricPrecision"><line x1="-92.347956" y1="0" x2="92.347956" y2="0" transform="translate(118.594217 242.27318)" fill="none" stroke="#3f5787" stroke-width="3"/><line x1="0" y1="75.523429" x2="0" y2="-75.523429" transform="translate(63.634098 166.749751)" fill="none" stroke="#3f5787" stroke-width="3"/><line x1="-36.266201" y1="0.373878" x2="36.266201" y2="-0.373878" transform="translate(99.900299 90.104686)" fill="none" stroke="#3f5787" stroke-width="3"/><line x1="0" y1="-17.946162" x2="0" y2="17.946162" transform="translate(136.1665 107.67697)" fill="none" stroke="#3f5787" stroke-width="3"/><ellipse rx="21.101549" ry="16.064726" transform="matrix(-.189212 0 0 1.22031 727.099169 186.536738)" fill="#030b1c" stroke="#000"/><ellipse rx="4.807356" ry="5.644264" transform="matrix(-.092298 0 0 1 338.686554 161.288528)" fill="#d2dbed" stroke-width="0"/><ellipse rx="4.807356" ry="5.644264" transform="matrix(-.68627 0 0 1 684.538407 155.644264)" fill="#d2dbed" stroke-width="0"/><ellipse rx="6.91675" ry="2.822132" transform="translate(649.981967 177.584739)" fill="#d2dbed" stroke-width="0"/><ellipse rx="30" ry="30" transform="translate(771.187837 115.227524)" fill="#d2dbed" stroke-width="0"/><ellipse rx="18.133101" ry="17.076993" transform="translate(136.727318 142.700125)" stroke-width="0"/><line x1="0" y1="-30.821702" x2="0" y2="30.821702" transform="translate(136.727318 190.59882)" fill="none" stroke="#3f5787" stroke-width="3"/><line x1="8.786142" y1="-2.822132" x2="-8.786141" y2="2.822132" transform="translate(567.939982 125.623132)" fill="none" stroke="#3f5787" stroke-width="3"/><line x1="8.786142" y1="-6.737039" x2="-8.786141" y2="6.73704" transform="translate(127.380359 173.669832)" fill="none" stroke="#3f5787" stroke-width="3"/><line x1="-6.91675" y1="-6.737039" x2="6.91675" y2="6.737039" transform="translate(143.08325 173.669832)" fill="none" stroke="#3f5787" stroke-width="3"/><line x1="-15" y1="0" x2="15" y2="0" transform="translate(512.635472 53.991437)" fill="none" stroke="#3f5787" stroke-width="3"/><line x1="8.786142" y1="-3.887081" x2="-8.786141" y2="3.887081" transform="matrix(-.192784 0 0 1 548.356854 225.307604)" fill="none" stroke="#3f5787" stroke-width="3"/><line x1="9.066551" y1="-7.654511" x2="-9.06655" y2="7.654511" transform="matrix(-.333864 0 0 1 604.862174 221.540174)" fill="none" stroke="#3f5787" stroke-width="3"/><line x1="-6.91675" y1="-14.193759" x2="6.91675" y2="14.193759" transform="translate(677.621657 142.700125)" fill="none" stroke="#3f5787" stroke-width="3"/><line x1="-15" y1="0" x2="15" y2="0" transform="translate(779.692849 69.300459)" fill="none" stroke="#3f5787" stroke-width="3"/><line x1="8.786141" y1="-3.887081" x2="-8.786141" y2="3.887081" transform="translate(127.380359 225.307604)" fill="none" stroke="#3f5787" stroke-width="3"/><line x1="-6.91675" y1="-3.887081" x2="6.91675" y2="3.887081" transform="translate(143.08325 225.307604)" fill="none" stroke="#3f5787" stroke-width="3"/></svg>
